<?xml version="1.0" encoding="UTF-8"?><svg id="a" xmlns="http://www.w3.org/2000/svg" viewBox="0 0 193 207.1"><defs><style>.b{fill:#f4fce3;}.c{fill:none;stroke:#069;stroke-miterlimit:10;}.c,.d{fill-rule:evenodd;}.d{fill:#99ca3c;}</style></defs><polygon class="b" points="192.1 143.45 192.1 74.75 132.6 40.45 73.2 74.75 73.2 143.45 132.6 177.75 192.1 143.45"/><path class="c" d="M46.53,121.99l10.99,19.89-10.18,7.63-10.52-24.98,9.71-2.54h0Zm59.09-41.17c3.58-.12,6.94,2.2,7.98,5.9,.93,3.7-.81,7.4-3.93,9.14l-4.05-15.03h0Zm-16.42-28.1c-3.01,.81-4.86,3.93-4.05,6.94l17.34,64.75c.81,3.01,3.93,4.86,6.94,4.05s4.86-3.93,4.05-6.94l-17.34-64.75c-.81-3.01-3.93-4.86-6.94-4.05h0Zm-34.92,32.15l8.9,33.19,36.31,5.9-16.65-62.21-28.56,23.13h0Zm-10.52,4.16l7.98-2.08,8.21,30.53-7.98,2.08-8.21-30.53h0Zm-18.73,7.28c-2.66,.69-4.28,3.47-3.58,6.24l4.51,16.65c.69,2.66,3.47,4.28,6.24,3.58l16.42-4.39-7.05-26.48-16.54,4.39Z"/><path class="d" d="M138.22,94.24c.23,.81-.23,1.62-1.04,1.85-1.5,.46-2.78,1.39-3.58,2.66-.69,1.27-1.04,2.89-.58,4.39h0c.23,.81-.23,1.62-1.04,1.85-.81,.23-1.62-.23-1.85-1.04-.46-1.5-1.39-2.78-2.66-3.58-1.27-.69-2.89-1.04-4.39-.58h0c-.81,.23-1.62-.23-1.85-1.04-.23-.81,.23-1.62,1.04-1.85,1.5-.46,2.78-1.39,3.58-2.66,.69-1.27,1.04-2.89,.58-4.39h0c-.23-.81,.23-1.62,1.04-1.85s1.62,.23,1.85,1.04c.46,1.5,1.39,2.78,2.66,3.58,1.27,.69,2.89,1.04,4.39,.58h0c.93-.23,1.73,.23,1.85,1.04h0Zm-14.92-28.68c.23,.81-.23,1.62-1.04,1.85-1.5,.46-2.78,1.39-3.58,2.66-.69,1.27-1.04,2.89-.58,4.39h0c.23,.81-.23,1.62-1.04,1.85s-1.62-.23-1.85-1.04c-.46-1.5-1.39-2.78-2.66-3.58-1.27-.69-2.89-1.04-4.39-.58h0c-.81,.23-1.62-.23-1.85-1.04-.23-.81,.23-1.62,1.04-1.85,1.5-.46,2.78-1.39,3.58-2.66,.69-1.27,1.04-2.89,.58-4.39h0c-.23-.81,.23-1.62,1.04-1.85s1.62,.23,1.85,1.04c.46,1.5,1.39,2.78,2.66,3.58,1.27,.69,2.89,1.04,4.39,.58h0c.92-.23,1.62,.23,1.85,1.04h0Zm18.15,7.4c.23,.81-.23,1.62-1.04,1.85-1.5,.46-2.78,1.39-3.58,2.66-.69,1.27-1.04,2.89-.58,4.39h0c.23,.81-.23,1.62-1.04,1.85s-1.62-.23-1.85-1.04c-.46-1.5-1.39-2.78-2.66-3.58-1.27-.69-2.89-1.04-4.39-.58h0c-.81,.23-1.62-.23-1.85-1.04-.23-.81,.23-1.62,1.04-1.85,1.5-.46,2.78-1.39,3.58-2.66,.69-1.27,1.04-2.89,.58-4.39h0c-.23-.81,.23-1.62,1.04-1.85s1.62,.23,1.85,1.04c.46,1.5,1.39,2.78,2.66,3.58,1.27,.69,2.89,1.04,4.39,.58h0c.81-.23,1.62,.23,1.85,1.04Z"/></svg>