<?xml version="1.0" encoding="UTF-8"?><svg id="a" xmlns="http://www.w3.org/2000/svg" viewBox="0 0 193 207.1"><defs><style>.b{fill:#f4fce3;}.c{fill:#99ca3c;}.c,.d{fill-rule:evenodd;}.d{fill:none;stroke:#069;stroke-miterlimit:10;stroke-width:3px;}</style></defs><polygon class="b" points="192.07 166.84 192.07 98.14 132.57 63.84 73.17 98.14 73.17 166.84 132.57 201.14 192.07 166.84"/><path class="c" d="M64.57,103.79c6.93-4.47,13.75-9.54,19.6-15.37,5.15-5.13,11.2-12.66,12.4-20.07,1.68-10.4-6.65-20.6-17.57-20.6-5.52,0-10.61,2.9-13.96,7.19l-.46,.6-.46-.6c-3.35-4.29-8.44-7.19-13.96-7.19-10.92,0-19.25,10.2-17.58,20.6,1.2,7.42,7.25,14.94,12.4,20.07,5.85,5.83,12.67,10.89,19.6,15.37Z"/><path class="d" d="M77.47,114.58c-1.12,1.12-1.96,2.36-2.52,3.7-.55,1.34-.83,2.81-.83,4.41h0v14.59h26.42v-1.77c-.04-.51,.13-1.03,.52-1.41l17.65-17.65c1.13-1.13,1.97-2.36,2.52-3.7,.55-1.34,.83-2.81,.83-4.41v-37.71c0-1.52-.62-2.9-1.62-3.9h0c-1-1-2.38-1.62-3.9-1.62s-2.9,.62-3.9,1.62c-1,1-1.62,2.38-1.62,3.9v24.82c.5,1.13,.78,2.33,.83,3.53,.1,2.45-.77,4.89-2.8,6.92l-10.81,10.81c-.7,.7-1.83,.7-2.53,0-.7-.7-.7-1.83,0-2.53l10.81-10.81c1.28-1.28,1.83-2.78,1.77-4.25-.03-.81-.24-1.62-.61-2.41-.03-.06-.06-.12-.09-.18-.37-.73-.89-1.44-1.52-2.08-1.16-1.16-2.69-1.74-4.23-1.74s-3,.55-4.15,1.66l-20.19,20.19h0Zm-7.94,26.28h36.18c1.27,0,2.31,1.04,2.31,2.31v9.64c0,1.27-1.04,2.31-2.31,2.31h-36.18c-1.27,0-2.31-1.04-2.31-2.31v-9.64c0-1.27,1.04-2.31,2.31-2.31h0Zm3.1,5.44c-.76,1.32-.31,3,1.01,3.76,1.32,.76,3,.31,3.76-1.01,.76-1.32,.31-3-1.01-3.76-1.32-.76-3-.31-3.76,1.01Z"/><path class="d" d="M51.68,114.58c1.12,1.12,1.96,2.36,2.52,3.7,.55,1.34,.83,2.81,.83,4.41h0v14.59H28.62v-1.77c.04-.51-.13-1.03-.52-1.41l-17.65-17.65c-1.13-1.13-1.97-2.36-2.52-3.7-.55-1.34-.83-2.81-.83-4.41v-37.71c0-1.52,.62-2.9,1.62-3.9h0c1-1,2.38-1.62,3.9-1.62s2.9,.62,3.9,1.62c1,1,1.62,2.38,1.62,3.9v24.82c-.5,1.13-.78,2.33-.83,3.53-.1,2.45,.77,4.89,2.8,6.92l10.81,10.81c.7,.7,1.83,.7,2.53,0,.7-.7,.7-1.83,0-2.53l-10.81-10.81c-1.28-1.28-1.83-2.78-1.77-4.25,.03-.81,.24-1.62,.61-2.41,.03-.06,.06-.12,.09-.18,.37-.73,.89-1.44,1.52-2.08,1.16-1.16,2.69-1.74,4.23-1.74s3,.55,4.15,1.66l20.19,20.19h0Zm7.94,26.28H23.43c-1.27,0-2.31,1.04-2.31,2.31v9.64c0,1.27,1.04,2.31,2.31,2.31H59.62c1.27,0,2.31-1.04,2.31-2.31v-9.64c0-1.27-1.04-2.31-2.31-2.31h0Zm-3.1,5.44c.76,1.32,.31,3-1.01,3.76-1.32,.76-3,.31-3.76-1.01-.76-1.32-.31-3,1.01-3.76,1.32-.76,3-.31,3.76,1.01Z"/></svg>