<?xml version="1.0" encoding="UTF-8"?><svg id="a" xmlns="http://www.w3.org/2000/svg" viewBox="0 0 193 207.1"><defs><style>.b{fill:#eef3f8;}.c{fill:#069;fill-rule:evenodd;}.d{stroke-width:4.19px;}.d,.e{fill:none;stroke:#99ca3c;stroke-miterlimit:10;}.e{stroke-width:5.58px;}</style></defs><polygon class="b" points="192.87 166.84 192.87 98.14 133.47 63.84 74.07 98.14 74.07 166.84 133.47 201.14 192.87 166.84"/><g><g><path class="e" d="M44.75,120.28c0,3.14,3.04,5.66,6.81,5.66s6.81-2.52,6.81-5.66c0-6.97-13.63-7.91-13.63-14.99,0-3.14,3.04-5.66,6.81-5.66s6.81,2.57,6.81,5.66"/><line class="e" x1="51.56" y1="125.94" x2="51.56" y2="132.07"/><line class="e" x1="51.56" y1="93.5" x2="51.56" y2="99.63"/></g><g><path class="d" d="M132.54,120.53c0,2.17,2.1,3.91,4.71,3.91s4.71-1.74,4.71-3.91c0-4.82-9.41-5.47-9.41-10.35,0-2.17,2.1-3.91,4.71-3.91s4.71,1.77,4.71,3.91"/><line class="d" x1="137.24" y1="124.44" x2="137.24" y2="128.67"/><line class="d" x1="137.24" y1="102.03" x2="137.24" y2="106.26"/></g><g><path class="d" d="M106.37,62.01c0,2.17,2.1,3.91,4.71,3.91s4.71-1.74,4.71-3.91c0-4.82-9.41-5.47-9.41-10.35,0-2.17,2.1-3.91,4.71-3.91s4.71,1.77,4.71,3.91"/><line class="d" x1="111.08" y1="65.92" x2="111.08" y2="70.16"/><line class="d" x1="111.08" y1="43.51" x2="111.08" y2="47.75"/></g><path class="c" d="M63.12,76.83l.25,.08c.2,.05,.39,.05,.56,.02,.19-.04,.39-.15,.59-.32l4.92-4.37c.93-.83,2.09-1.28,3.27-1.33,1.17-.06,2.36,.28,3.37,1l6.93,5.03c1.01,.73,1.69,1.76,2,2.9v.02h.01c.3,1.12,.23,2.35-.27,3.5l-2.62,5.98c-.1,.23-.14,.46-.12,.68,.02,.21,.11,.42,.26,.63l.07,.09c.14,.18,.31,.32,.48,.39,.19,.08,.42,.12,.68,.09l6.13-.61c1.36-.13,2.66,.2,3.73,.9,1.07,.7,1.9,1.76,2.33,3.06l2.53,7.78,.07,.26c.3,1.11,.24,2.25-.15,3.27-.42,1.09-1.2,2.04-2.28,2.68l-5.56,3.25c-.22,.13-.39,.29-.49,.47-.11,.19-.16,.42-.16,.67v.14c0,.25,.06,.48,.16,.66h.01c.1,.17,.26,.33,.48,.46l.24,.15,4.01,2.35h0l1.31,.76c1.07,.63,1.86,1.59,2.28,2.69,.42,1.1,.47,2.34,.08,3.53l-2.65,8.14c-.39,1.19-1.15,2.16-2.14,2.81l-.33,.19c-.91,.51-1.98,.75-3.09,.64-2.08-.26-4.23-.42-6.33-.63-.25-.02-.48,.01-.68,.1-.19,.09-.37,.24-.52,.44l-.22,.31c-.09,.16-.15,.33-.17,.5-.02,.21,.02,.45,.12,.68l2.55,5.82c.5,1.15,.58,2.37,.27,3.5-.31,1.14-1,2.18-2.01,2.92l-6.93,5.03c-1,.73-2.19,1.06-3.37,1-1.19-.06-2.34-.51-3.27-1.33-1.59-1.42-3.23-2.82-4.79-4.26-.16-.12-.33-.2-.49-.23-.2-.04-.43-.02-.69,.06l-.41,.13c-.18,.08-.34,.18-.45,.31-.13,.15-.24,.35-.29,.6l-1.34,6.14c-.27,1.22-.94,2.27-1.86,3.01-.92,.74-2.08,1.18-3.33,1.18h-8.56c-1.24,0-2.4-.43-3.33-1.18-.92-.74-1.59-1.79-1.86-3.01l-1.34-6.12c-.05-.25-.16-.45-.29-.6-.14-.16-.34-.28-.58-.36l-.3-.09c-.25-.08-.49-.1-.69-.06-.19,.04-.39,.15-.59,.32l-4.69,4.17c-.93,.83-2.08,1.28-3.27,1.34-1.17,.06-2.36-.27-3.37-1l-6.93-5.03c-.13-.09-.25-.19-.36-.3-.81-.7-1.37-1.62-1.64-2.61v-.02h-.01c-.3-1.12-.23-2.35,.27-3.49l2.54-5.79c.1-.23,.14-.47,.12-.68s-.11-.42-.25-.62l-.15-.2c-.15-.2-.32-.35-.52-.44-.2-.09-.43-.12-.68-.1l-6.43,.63c-1.2,.09-2.35-.22-3.3-.84-.98-.64-1.75-1.61-2.14-2.81l-2.65-8.14c-.39-1.19-.34-2.42,.08-3.51h0c.42-1.12,1.2-2.08,2.28-2.71l.24-.13,5.3-3.1c.22-.13,.39-.29,.49-.47h-.01c.11-.2,.17-.42,.17-.66h-.01v-.34c-.01-.19-.07-.36-.15-.5-.1-.18-.27-.34-.49-.47l-5.55-3.25c-1.08-.63-1.86-1.59-2.28-2.68-.42-1.09-.47-2.32-.08-3.51l2.65-8.16,.1-.26c.41-1.07,1.13-1.94,2.04-2.54,.98-.65,2.17-.96,3.42-.84l6.48,.64c.26,.03,.49,0,.68-.09,.19-.09,.37-.23,.51-.43l.05-.06c.14-.21,.23-.43,.26-.63,.02-.21-.02-.44-.12-.68l-2.62-5.97c-.5-1.15-.57-2.37-.27-3.5,.31-1.14,1-2.18,2.01-2.92l6.93-5.03c1-.73,2.19-1.06,3.37-1,1.19,.06,2.34,.51,3.27,1.33l4.91,4.36c.19,.17,.4,.28,.59,.32,.2,.04,.43,.03,.68-.05l.1-.03c.2-.08,.37-.19,.5-.33,.13-.15,.23-.35,.29-.6l1.41-6.42c.27-1.22,.94-2.26,1.86-3.01,.92-.74,2.09-1.17,3.33-1.17h8.56c1.24,0,2.4,.43,3.32,1.17,.92,.74,1.59,1.79,1.86,3.01l1.41,6.42c.06,.25,.15,.46,.28,.6h0c.12,.13,.28,.24,.47,.31h0Zm-1.19,4.55l-.13-.05c-1.5-.48-2.79-1.31-3.78-2.41h0c-1.01-1.13-1.71-2.48-2.05-4.01l-1.22-5.56h-6.52l-1.22,5.56c-.34,1.54-1.04,2.9-2.05,4.01-.95,1.05-2.16,1.85-3.58,2.34l-.21,.07c-1.49,.48-3.01,.56-4.46,.26-1.46-.31-2.83-.99-4-2.03l-4.26-3.79-5.28,3.84,2.27,5.18c.63,1.44,.86,2.95,.7,4.43-.16,1.48-.72,2.91-1.65,4.18l-.1,.13c-.92,1.23-2.08,2.16-3.4,2.75-1.35,.61-2.85,.85-4.41,.7l-5.62-.56-2.02,6.22,4.79,2.8c1.36,.8,2.44,1.89,3.18,3.19,.67,1.17,1.05,2.51,1.11,3.93l.02,.56h-.01c0,1.58-.39,3.05-1.12,4.33h-.01c-.74,1.29-1.81,2.37-3.16,3.16l-4.79,2.8,2.02,6.22,5.43-.54c1.57-.16,3.08,.09,4.44,.7,1.36,.61,2.54,1.59,3.47,2.87l.14,.2c.92,1.27,1.47,2.69,1.63,4.16,.16,1.47-.07,2.98-.7,4.41l-2.19,4.99,5.28,3.84,4.03-3.58c1.17-1.04,2.54-1.73,4.02-2.03,1.47-.3,2.99-.22,4.48,.27l.29,.1h0c1.49,.49,2.77,1.32,3.76,2.41,1.01,1.11,1.72,2.47,2.05,4.01l1.15,5.24h6.52l1.15-5.26c.34-1.54,1.04-2.9,2.05-4.01,.93-1.02,2.1-1.81,3.47-2.3l.57-.2c1.48-.49,3.01-.57,4.48-.27,1.36,.28,2.64,.89,3.76,1.81l.27,.22,4.03,3.58,5.28-3.84-2.2-5.02c-.63-1.43-.86-2.94-.7-4.41,.15-1.35,.62-2.67,1.42-3.86l.34-.5c.93-1.28,2.11-2.24,3.47-2.86,1.35-.61,2.86-.86,4.44-.71l5.44,.54,2.02-6.2-.27-.16h0l-4.29-2.52-.26-.14c-1.35-.79-2.43-1.88-3.17-3.17h.01c-.73-1.29-1.13-2.75-1.14-4.3v-.15c0-1.58,.38-3.05,1.11-4.35,.74-1.3,1.82-2.39,3.18-3.19l4.81-2.81-2.02-6.22-5.65,.56c-1.55,.15-3.05-.09-4.4-.7-1.32-.59-2.47-1.5-3.38-2.7l-.16-.21c-.9-1.26-1.45-2.67-1.61-4.13-.16-1.48,.07-2.99,.7-4.44l2.27-5.19-5.28-3.84-4.27,3.8c-1.17,1.04-2.53,1.72-4,2.03-1.36,.28-2.77,.23-4.17-.17l-.17-.04h0Zm-10.42,8.07c-6.51,0-12.4,2.64-16.66,6.9-4.26,4.26-6.9,10.16-6.9,16.66s2.64,12.4,6.9,16.67c4.26,4.26,10.16,6.9,16.66,6.9s12.4-2.64,16.66-6.9c4.26-4.26,6.9-10.16,6.9-16.67s-2.64-12.4-6.9-16.66c-4.26-4.26-10.16-6.9-16.66-6.9h0Zm13.17,10.39c-3.37-3.37-8.03-5.46-13.17-5.46s-9.8,2.09-13.17,5.46c-3.37,3.37-5.46,8.03-5.46,13.17s2.09,9.8,5.46,13.17c3.37,3.37,8.03,5.46,13.17,5.46s9.8-2.09,13.17-5.46c3.37-3.37,5.46-8.03,5.46-13.17s-2.09-9.8-5.46-13.17Z"/><path class="c" d="M118.71,33.37l.16,.05c.13,.03,.26,.04,.37,.01,.13-.03,.26-.1,.39-.21l3.23-2.87c.61-.54,1.37-.84,2.15-.88,.77-.04,1.55,.18,2.21,.66l4.55,3.31c.66,.48,1.11,1.16,1.31,1.91h0c.2,.75,.15,1.55-.18,2.31l-1.72,3.93c-.07,.15-.09,.31-.08,.44,.01,.14,.07,.28,.17,.41l.05,.06c.09,.12,.2,.21,.31,.26,.12,.06,.28,.08,.44,.06l4.03-.4c.89-.09,1.75,.13,2.45,.59,.7,.46,1.25,1.15,1.53,2.01l1.66,5.11,.05,.17c.2,.73,.16,1.48-.1,2.15-.27,.72-.79,1.34-1.5,1.76l-3.65,2.14c-.14,.08-.25,.19-.32,.31-.07,.12-.11,.28-.11,.44v.09c0,.17,.04,.31,.1,.43h0c.06,.11,.17,.22,.32,.3l.16,.1,2.63,1.54h0l.86,.5c.7,.41,1.22,1.04,1.5,1.77,.28,.72,.31,1.53,.06,2.32l-1.74,5.35c-.25,.78-.76,1.42-1.4,1.84l-.21,.12c-.6,.34-1.3,.49-2.03,.42-1.37-.17-2.78-.27-4.16-.41-.16-.02-.32,0-.45,.07-.13,.06-.25,.16-.34,.29l-.15,.21c-.06,.11-.1,.22-.11,.33-.01,.14,.01,.29,.08,.45l1.67,3.82c.33,.75,.38,1.56,.18,2.3-.2,.75-.66,1.43-1.32,1.92l-4.55,3.31c-.66,.48-1.44,.7-2.21,.66-.78-.04-1.54-.33-2.15-.88-1.05-.93-2.12-1.85-3.15-2.8-.11-.08-.22-.13-.32-.15-.13-.03-.29-.01-.45,.04l-.27,.09c-.12,.05-.22,.12-.3,.21-.09,.1-.15,.23-.19,.39l-.88,4.03c-.18,.8-.62,1.49-1.22,1.98-.61,.49-1.37,.77-2.18,.77h-5.63c-.82,0-1.58-.28-2.19-.77-.61-.49-1.05-1.17-1.22-1.98l-.88-4.02c-.04-.16-.1-.3-.19-.4-.09-.1-.22-.19-.38-.24l-.19-.06c-.17-.05-.32-.07-.45-.04-.12,.03-.26,.1-.39,.21l-3.08,2.74c-.61,.54-1.37,.84-2.15,.88-.77,.04-1.55-.18-2.21-.66l-4.55-3.31c-.08-.06-.16-.13-.23-.2-.53-.46-.9-1.06-1.08-1.71h0c-.2-.75-.15-1.55,.18-2.31l1.67-3.81c.07-.15,.09-.31,.08-.45s-.07-.28-.17-.41l-.1-.13c-.1-.13-.21-.23-.34-.29-.13-.06-.28-.08-.45-.06l-4.22,.42c-.79,.06-1.55-.14-2.17-.55-.65-.42-1.15-1.06-1.4-1.84l-1.74-5.35c-.25-.78-.22-1.59,.05-2.31h0c.27-.73,.79-1.36,1.5-1.78l.16-.08,3.48-2.04c.15-.08,.25-.19,.32-.31h0c.07-.13,.11-.28,.11-.43h0v-.22c0-.12-.04-.23-.1-.33-.07-.12-.18-.23-.32-.31l-3.64-2.13c-.71-.42-1.22-1.04-1.5-1.76-.28-.72-.31-1.53-.06-2.31l1.74-5.36,.06-.17c.27-.7,.74-1.27,1.34-1.67,.64-.43,1.43-.63,2.25-.55l4.26,.42c.17,.02,.32,0,.44-.06,.13-.06,.24-.15,.34-.28l.03-.04c.1-.14,.15-.28,.17-.42,.01-.14-.01-.29-.08-.44l-1.72-3.92c-.33-.75-.38-1.56-.18-2.3,.2-.75,.66-1.43,1.32-1.92l4.55-3.31c.66-.48,1.44-.7,2.21-.66,.78,.04,1.54,.33,2.15,.88l3.22,2.87c.13,.11,.26,.19,.39,.21,.13,.03,.29,.02,.44-.04l.07-.02c.13-.05,.24-.13,.33-.22,.09-.1,.15-.23,.19-.39l.92-4.22c.18-.8,.62-1.49,1.22-1.98,.61-.49,1.37-.77,2.18-.77h5.63c.81,0,1.58,.28,2.18,.77,.61,.49,1.05,1.17,1.22,1.98l.92,4.22c.04,.17,.1,.3,.18,.4h0c.08,.08,.18,.16,.31,.21h0Zm-1.22,4.32l-.08-.03c-.92-.3-1.71-.81-2.33-1.48h0c-.62-.69-1.05-1.53-1.26-2.46l-.75-3.42h-4.01l-.75,3.42c-.21,.94-.64,1.78-1.26,2.46-.58,.64-1.33,1.14-2.2,1.44l-.13,.04c-.91,.3-1.85,.35-2.74,.16-.9-.19-1.74-.61-2.46-1.25l-2.62-2.33-3.25,2.36,1.4,3.19c.39,.89,.53,1.82,.43,2.73-.1,.91-.44,1.79-1.01,2.57l-.06,.08c-.57,.75-1.28,1.33-2.09,1.69-.83,.37-1.75,.52-2.71,.43l-3.45-.34-1.24,3.82,2.95,1.72c.84,.49,1.5,1.16,1.95,1.96,.41,.72,.65,1.54,.68,2.42v.35h0c0,.97-.24,1.88-.69,2.66h0c-.46,.79-1.11,1.46-1.94,1.94l-2.94,1.72,1.24,3.82,3.34-.33c.97-.1,1.9,.06,2.73,.43,.83,.38,1.56,.97,2.13,1.76l.09,.12c.56,.78,.9,1.66,1,2.56,.1,.9-.04,1.83-.43,2.71l-1.35,3.07,3.25,2.36,2.48-2.2c.72-.64,1.56-1.06,2.47-1.25,.9-.19,1.84-.14,2.75,.16l.18,.06h0c.92,.3,1.7,.81,2.31,1.48,.62,.68,1.06,1.52,1.26,2.47l.71,3.22h4.01l.71-3.23c.21-.95,.64-1.78,1.26-2.47,.57-.63,1.29-1.11,2.13-1.42l.35-.12c.91-.3,1.85-.35,2.75-.17,.84,.17,1.63,.55,2.31,1.12l.16,.13,2.48,2.2,3.25-2.36-1.35-3.08c-.39-.88-.53-1.81-.43-2.71,.09-.83,.38-1.64,.87-2.38l.21-.31c.57-.78,1.3-1.38,2.13-1.76,.83-.38,1.76-.53,2.73-.43l3.35,.33,1.24-3.81-.17-.1h0l-2.64-1.55-.16-.08c-.83-.49-1.49-1.15-1.95-1.95h0c-.45-.79-.69-1.69-.7-2.65v-.09c0-.97,.23-1.88,.69-2.67,.46-.8,1.12-1.47,1.95-1.96l2.96-1.73-1.24-3.82-3.47,.34c-.95,.09-1.88-.06-2.71-.43-.81-.36-1.52-.92-2.08-1.66l-.1-.13c-.56-.77-.89-1.64-.99-2.54-.1-.91,.04-1.84,.43-2.73l1.4-3.19-3.25-2.36-2.63,2.34c-.72,.64-1.56,1.06-2.46,1.25-.83,.17-1.7,.14-2.56-.1l-.1-.03h0Zm-6.41,2.72c-4.62,0-8.8,1.87-11.83,4.9-3.03,3.03-4.9,7.21-4.9,11.83s1.87,8.81,4.9,11.83c3.03,3.03,7.21,4.9,11.83,4.9s8.8-1.87,11.83-4.9c3.03-3.03,4.9-7.21,4.9-11.83s-1.87-8.8-4.9-11.83c-3.03-3.03-7.21-4.9-11.83-4.9h0Zm8.65,8.08c-2.21-2.21-5.27-3.58-8.65-3.58s-6.44,1.37-8.65,3.58c-2.21,2.21-3.58,5.28-3.58,8.65s1.37,6.44,3.58,8.66c2.21,2.21,5.28,3.59,8.65,3.59s6.44-1.37,8.65-3.59c2.21-2.21,3.59-5.28,3.59-8.66s-1.37-6.44-3.59-8.65Z"/><path class="c" d="M144.88,91.57l.16,.05c.13,.03,.26,.04,.37,.01,.13-.03,.26-.1,.39-.21l3.23-2.87c.61-.54,1.37-.84,2.15-.88,.77-.04,1.55,.18,2.21,.66l4.55,3.31c.66,.48,1.11,1.16,1.31,1.91h0c.2,.75,.15,1.55-.18,2.31l-1.72,3.93c-.07,.15-.09,.31-.08,.44,.01,.14,.07,.28,.17,.41l.05,.06c.09,.12,.2,.21,.31,.26,.12,.06,.28,.08,.44,.06l4.03-.4c.89-.09,1.75,.13,2.45,.59,.7,.46,1.25,1.15,1.53,2.01l1.66,5.11,.05,.17c.2,.73,.16,1.48-.1,2.15-.27,.72-.79,1.34-1.5,1.76l-3.65,2.14c-.14,.08-.25,.19-.32,.31-.07,.12-.11,.28-.11,.44v.09c0,.17,.04,.31,.1,.43h0c.06,.11,.17,.22,.32,.3l.16,.1,2.63,1.54h0l.86,.5c.7,.41,1.22,1.04,1.5,1.77,.28,.72,.31,1.53,.06,2.32l-1.74,5.35c-.25,.78-.76,1.42-1.4,1.84l-.21,.12c-.6,.34-1.3,.49-2.03,.42-1.37-.17-2.78-.27-4.16-.41-.16-.02-.32,0-.45,.07-.13,.06-.25,.16-.34,.29l-.15,.21c-.06,.11-.1,.22-.11,.33-.01,.14,.01,.29,.08,.45l1.67,3.82c.33,.75,.38,1.56,.18,2.3-.2,.75-.66,1.43-1.32,1.92l-4.55,3.31c-.66,.48-1.44,.7-2.21,.66-.78-.04-1.54-.33-2.15-.88-1.05-.93-2.12-1.85-3.15-2.8-.11-.08-.22-.13-.32-.15-.13-.03-.29-.01-.45,.04l-.27,.09c-.12,.05-.22,.12-.3,.21-.09,.1-.15,.23-.19,.39l-.88,4.03c-.18,.8-.62,1.49-1.22,1.98-.61,.49-1.37,.77-2.18,.77h-5.63c-.82,0-1.58-.28-2.19-.77-.61-.49-1.05-1.17-1.22-1.98l-.88-4.02c-.04-.16-.1-.3-.19-.4-.09-.1-.22-.19-.38-.24l-.19-.06c-.17-.05-.32-.07-.45-.04-.12,.03-.26,.1-.39,.21l-3.08,2.74c-.61,.54-1.37,.84-2.15,.88-.77,.04-1.55-.18-2.21-.66l-4.55-3.31c-.08-.06-.16-.13-.23-.2-.53-.46-.9-1.06-1.08-1.71h0c-.2-.75-.15-1.55,.18-2.31l1.67-3.81c.07-.15,.09-.31,.08-.45s-.07-.28-.17-.41l-.1-.13c-.1-.13-.21-.23-.34-.29-.13-.06-.28-.08-.45-.06l-4.22,.42c-.79,.06-1.55-.14-2.17-.55-.65-.42-1.15-1.06-1.4-1.84l-1.74-5.35c-.25-.78-.22-1.59,.05-2.31h0c.27-.73,.79-1.36,1.5-1.78l.16-.08,3.48-2.04c.15-.08,.25-.19,.32-.31h0c.07-.13,.11-.28,.11-.43h0v-.22c0-.12-.04-.23-.1-.33-.07-.12-.18-.23-.32-.31l-3.64-2.13c-.71-.42-1.22-1.04-1.5-1.76-.28-.72-.31-1.53-.06-2.31l1.74-5.36,.06-.17c.27-.7,.74-1.27,1.34-1.67,.64-.43,1.43-.63,2.25-.55l4.26,.42c.17,.02,.32,0,.44-.06,.13-.06,.24-.15,.34-.28l.03-.04c.1-.14,.15-.28,.17-.42,.01-.14-.01-.29-.08-.44l-1.72-3.92c-.33-.75-.38-1.56-.18-2.3,.2-.75,.66-1.43,1.32-1.92l4.55-3.31c.66-.48,1.44-.7,2.21-.66,.78,.04,1.54,.33,2.15,.88l3.22,2.87c.13,.11,.26,.19,.39,.21,.13,.03,.29,.02,.44-.04l.07-.02c.13-.05,.24-.13,.33-.22,.09-.1,.15-.23,.19-.39l.92-4.22c.18-.8,.62-1.49,1.22-1.98,.61-.49,1.37-.77,2.18-.77h5.63c.81,0,1.58,.28,2.18,.77,.61,.49,1.05,1.17,1.22,1.98l.92,4.22c.04,.17,.1,.3,.18,.4h0c.08,.08,.18,.16,.31,.21h0Zm-1.22,4.32l-.08-.03c-.92-.3-1.71-.81-2.33-1.48h0c-.62-.69-1.05-1.53-1.26-2.46l-.75-3.42h-4.01l-.75,3.42c-.21,.94-.64,1.78-1.26,2.46-.58,.64-1.33,1.14-2.2,1.44l-.13,.04c-.91,.3-1.85,.35-2.74,.16-.9-.19-1.74-.61-2.46-1.25l-2.62-2.33-3.25,2.36,1.4,3.19c.39,.89,.53,1.82,.43,2.73-.1,.91-.44,1.79-1.01,2.57l-.06,.08c-.57,.75-1.28,1.33-2.09,1.69-.83,.37-1.75,.52-2.71,.43l-3.45-.34-1.24,3.82,2.95,1.72c.84,.49,1.5,1.16,1.95,1.96,.41,.72,.65,1.54,.68,2.42v.35h0c0,.97-.24,1.88-.69,2.66h0c-.46,.79-1.11,1.46-1.94,1.94l-2.94,1.72,1.24,3.82,3.34-.33c.97-.1,1.9,.06,2.73,.43,.83,.38,1.56,.97,2.13,1.76l.09,.12c.56,.78,.9,1.66,1,2.56,.1,.9-.04,1.83-.43,2.71l-1.35,3.07,3.25,2.36,2.48-2.2c.72-.64,1.56-1.06,2.47-1.25,.9-.19,1.84-.14,2.75,.16l.18,.06h0c.92,.3,1.7,.81,2.31,1.48,.62,.68,1.06,1.52,1.26,2.47l.71,3.22h4.01l.71-3.23c.21-.95,.64-1.78,1.26-2.47,.57-.63,1.29-1.11,2.13-1.42l.35-.12c.91-.3,1.85-.35,2.75-.17,.84,.17,1.63,.55,2.31,1.12l.16,.13,2.48,2.2,3.25-2.36-1.35-3.08c-.39-.88-.53-1.81-.43-2.71,.09-.83,.38-1.64,.87-2.38l.21-.31c.57-.78,1.3-1.38,2.13-1.76,.83-.38,1.76-.53,2.73-.43l3.35,.33,1.24-3.81-.17-.1h0l-2.64-1.55-.16-.08c-.83-.49-1.49-1.15-1.95-1.95h0c-.45-.79-.69-1.69-.7-2.65v-.09c0-.97,.23-1.88,.69-2.67,.46-.8,1.12-1.47,1.95-1.96l2.96-1.73-1.24-3.82-3.47,.34c-.95,.09-1.88-.06-2.71-.43-.81-.36-1.52-.92-2.08-1.66l-.1-.13c-.56-.77-.89-1.64-.99-2.54-.1-.91,.04-1.84,.43-2.73l1.4-3.19-3.25-2.36-2.63,2.34c-.72,.64-1.56,1.06-2.46,1.25-.83,.17-1.7,.14-2.56-.1l-.1-.03h0Zm-6.41,2.72c-4.62,0-8.8,1.87-11.83,4.9-3.03,3.03-4.9,7.21-4.9,11.83s1.87,8.81,4.9,11.83c3.03,3.03,7.21,4.9,11.83,4.9s8.8-1.87,11.83-4.9c3.03-3.03,4.9-7.21,4.9-11.83s-1.87-8.8-4.9-11.83c-3.03-3.03-7.21-4.9-11.83-4.9h0Zm8.65,8.08c-2.21-2.21-5.27-3.58-8.65-3.58s-6.44,1.37-8.65,3.58c-2.21,2.21-3.58,5.28-3.58,8.65s1.37,6.44,3.58,8.66c2.21,2.21,5.28,3.59,8.65,3.59s6.44-1.37,8.65-3.59c2.21-2.21,3.59-5.28,3.59-8.66s-1.37-6.44-3.59-8.65Z"/></g></svg>