<?xml version="1.0" encoding="UTF-8"?><svg id="a" xmlns="http://www.w3.org/2000/svg" viewBox="0 0 193 207.1"><defs><style>.b{fill:#f4fce3;}.c{fill:none;stroke:#069;stroke-miterlimit:10;}.c,.d{fill-rule:evenodd;}.d{fill:#99ca3c;}</style></defs><polygon class="b" points="193.35 143.45 193.35 74.75 133.85 40.45 74.45 74.75 74.45 143.45 133.85 177.75 193.35 143.45"/><path class="d" d="M74.45,98.88c6.9-4.5,13.7-9.5,19.6-15.4,5.2-5.1,11.2-12.7,12.4-20.1,1.7-10.4-6.7-20.6-17.6-20.6-5.5,0-10.6,2.9-14,7.2l-.5,.6-.5-.6c-3.3-4.3-8.4-7.2-14-7.2-10.9,0-19.3,10.2-17.6,20.6,1.2,7.4,7.2,14.9,12.4,20.1,6,5.9,12.8,10.9,19.8,15.4Z"/><path class="c" d="M87.35,109.68c-1.1,1.1-2,2.4-2.5,3.7-.6,1.3-.8,2.8-.8,4.4h0v14.6h26.4v-1.8c0-.5,.1-1,.5-1.4l17.6-17.6c1.1-1.1,2-2.4,2.5-3.7,.6-1.3,.8-2.8,.8-4.4v-37.7c0-1.5-.6-2.9-1.6-3.9h0c-1-1-2.4-1.6-3.9-1.6s-2.9,.6-3.9,1.6-1.6,2.4-1.6,3.9v24.8c.5,1.1,.8,2.3,.8,3.5,.1,2.4-.8,4.9-2.8,6.9l-10.8,10.8c-.7,.7-1.8,.7-2.5,0s-.7-1.8,0-2.5l10.8-10.8c1.3-1.3,1.8-2.8,1.8-4.3,0-.8-.2-1.6-.6-2.4,0-.1-.1-.1-.1-.2-.4-.7-.9-1.4-1.5-2.1-1.2-1.2-2.7-1.7-4.2-1.7s-3,.6-4.2,1.7l-20.2,20.2h0Zm-8,26.3h36.2c1.3,0,2.3,1,2.3,2.3v9.6c0,1.3-1,2.3-2.3,2.3h-36.2c-1.3,0-2.3-1-2.3-2.3v-9.6c0-1.3,1.1-2.3,2.3-2.3h0Zm3.1,5.4c-.8,1.3-.3,3,1,3.8s3,.3,3.8-1,.3-3-1-3.8-3-.3-3.8,1Z"/><path class="c" d="M61.55,109.68c1.1,1.1,2,2.4,2.5,3.7,.6,1.3,.8,2.8,.8,4.4h0v14.6h-26.4v-1.8c0-.5-.1-1-.5-1.4l-17.6-17.6c-1.1-1.1-2-2.4-2.5-3.7-.6-1.3-.8-2.8-.8-4.4v-37.7c0-1.5,.6-2.9,1.6-3.9h0c1-1,2.4-1.6,3.9-1.6s2.9,.6,3.9,1.6,1.6,2.4,1.6,3.9v24.8c-.5,1.1-.8,2.3-.8,3.5-.1,2.4,.8,4.9,2.8,6.9l10.8,10.8c.7,.7,1.8,.7,2.5,0s.7-1.8,0-2.5l-10.8-10.8c-1.3-1.3-1.8-2.8-1.8-4.3,0-.8,.2-1.6,.6-2.4,0-.1,.1-.1,.1-.2,.4-.7,.9-1.4,1.5-2.1,1.2-1.2,2.7-1.7,4.2-1.7s3,.6,4.2,1.7l20.2,20.2h0Zm7.9,26.3H33.25c-1.3,0-2.3,1-2.3,2.3v9.6c0,1.3,1,2.3,2.3,2.3h36.2c1.3,0,2.3-1,2.3-2.3v-9.6c0-1.3-1-2.3-2.3-2.3h0Zm-3.1,5.4c.8,1.3,.3,3-1,3.8s-3,.3-3.8-1-.3-3,1-3.8c1.4-.8,3.1-.3,3.8,1Z"/></svg>