<?xml version="1.0" encoding="UTF-8"?><svg id="a" xmlns="http://www.w3.org/2000/svg" viewBox="0 0 193 207.1"><defs><style>.b{fill:#eef3f8;}.c{fill:#99ca3c;}.c,.d{fill-rule:evenodd;}.d{fill:#069;}</style></defs><polygon class="b" points="193.15 166.84 193.15 98.14 133.75 63.84 74.35 98.14 74.35 166.84 133.75 201.14 193.15 166.84"/><g><path class="d" d="M9.21,102.21H27.9c1.06,0,1.91,.86,1.91,1.91v31.59c0,1.06-.86,1.91-1.91,1.91H9.21c-1.06,0-1.91-.86-1.91-1.91v-31.59c0-1.06,.86-1.91,1.91-1.91h0Zm16.78,3.83H11.13v27.76h14.86v-27.76h0Zm28.87,27.76c1.06,0,1.91,.86,1.91,1.91s-.86,1.91-1.91,1.91h-14.82c-1.06,0-1.91-.86-1.91-1.91v-46.96c0-1.06,.86-1.91,1.91-1.91h18.69c1.06,0,1.91,.86,1.91,1.91v26.43c0,1.06-.86,1.91-1.91,1.91s-1.91-.86-1.91-1.91v-24.52h-14.86v43.13h12.9Zm17.92-35c0,1.06-.86,1.91-1.91,1.91s-1.91-.86-1.91-1.91v-30.6c0-1.06,.86-1.91,1.91-1.91h18.69c1.06,0,1.91,.86,1.91,1.91v20.82c0,1.06-.86,1.91-1.91,1.91s-1.91-.86-1.91-1.91v-18.91h-14.86v28.69h0Zm30.83-11.22V48.44c0-1.06-.86-1.91-1.91-1.91h-5.91l15.25-16.04,15.25,16.04h-5.91c-1.06,0-1.91,.86-1.91,1.91v43.35c0,1.06,.86,1.91,1.91,1.91s1.91-.86,1.91-1.91V50.35h8.45c.47,0,.95-.18,1.32-.53,.76-.73,.79-1.94,.07-2.7-6.53-6.87-13.1-14.12-19.78-20.79-.76-.73-1.97-.7-2.7,.07l-19.62,20.63c-.38,.35-.62,.85-.62,1.41,0,1.06,.86,1.91,1.91,1.91h8.45v37.23c0,1.06,.86,1.91,1.91,1.91s1.91-.86,1.91-1.91Z"/><path class="d" d="M107.84,129.8l1.56-2.7,2.19-3.79-6.49,3.75c1.12,.67,2.07,1.62,2.74,2.74h0Zm.77,6.31c-.36,1.2-1.02,2.33-1.97,3.28-1.54,1.54-3.55,2.3-5.57,2.3s-4.03-.77-5.57-2.3c-1.54-1.54-2.3-3.55-2.3-5.57s.77-4.03,2.3-5.57c.94-.94,2.07-1.6,3.27-1.96l17.08-9.88c.91-.53,2.08-.22,2.61,.7,.36,.62,.33,1.35,0,1.93l-9.86,17.06h0Zm-3.49-2.29c0,1.03-.39,2.07-1.18,2.86-.79,.79-1.82,1.18-2.86,1.18s-2.07-.39-2.86-1.18c-.79-.79-1.18-1.82-1.18-2.86s.39-2.07,1.18-2.86c.79-.79,1.83-1.19,2.86-1.19h0c2.23,0,4.04,1.81,4.04,4.05Z"/><path class="c" d="M62.52,131.91h8.13c.26-4.16,1.35-8.1,3.12-11.65l-7.04-4.06c-2.44,4.75-3.93,10.07-4.2,15.71h0Zm8.13,3.83h-8.13c.14,2.79,.57,5.5,1.26,8.09,.71,2.67,1.71,5.22,2.94,7.62l7.05-4.07c-.89-1.8-1.62-3.69-2.14-5.66-.52-1.93-.85-3.93-.98-5.98h0Zm32.34-32.34c4.16,.26,8.1,1.35,11.65,3.12l4.06-7.04c-4.75-2.44-10.07-3.93-15.71-4.2v8.13h0Zm14.95,5.03l4.06-7.04c2.3,1.49,4.43,3.21,6.36,5.14s3.66,4.06,5.14,6.36l-7.04,4.06c-1.12-1.69-2.41-3.26-3.84-4.69s-3-2.72-4.69-3.84h0Zm10.44,11.83c1.76,3.55,2.86,7.48,3.12,11.65h8.13c-.28-5.64-1.76-10.96-4.2-15.71l-7.04,4.06h0Zm3.12,15.48c-.13,2.05-.46,4.05-.98,5.98-.53,1.97-1.25,3.87-2.14,5.66l7.05,4.07c1.24-2.4,2.23-4.96,2.94-7.62,.69-2.59,1.12-5.3,1.26-8.09h-8.13Zm-32.34-40.46c-5.64,.28-10.96,1.76-15.71,4.2l4.06,7.04c3.55-1.76,7.48-2.86,11.65-3.12v-8.13h0Zm-19.02,6.12l4.06,7.04c-1.69,1.12-3.26,2.41-4.69,3.84-1.43,1.43-2.72,3-3.84,4.69l-7.04-4.06c1.49-2.3,3.21-4.43,5.14-6.36,1.93-1.93,4.06-3.65,6.36-5.14h0Zm39.78,13.58c-4.82-4.82-11.49-7.81-18.85-7.81s-14.02,2.98-18.85,7.81c-4.82,4.82-7.81,11.49-7.81,18.85,0,2.4,.31,4.71,.9,6.91,.61,2.28,1.51,4.43,2.66,6.42h0c.52,.92,.21,2.09-.7,2.61l-10.34,5.97c-.91,.53-2.08,.22-2.61-.7-1.84-3.18-3.27-6.61-4.24-10.22-.94-3.51-1.44-7.2-1.44-10.99,0-11.71,4.75-22.32,12.43-30,7.68-7.68,18.28-12.43,30-12.43s22.32,4.75,30,12.43c7.68,7.68,12.43,18.28,12.43,30,0,3.79-.5,7.48-1.44,10.99-.97,3.62-2.41,7.05-4.24,10.22-.53,.91-1.69,1.22-2.6,.7l-10.35-5.97c-.91-.53-1.22-1.7-.7-2.61,1.15-1.99,2.05-4.14,2.66-6.42,.59-2.2,.9-4.51,.9-6.91,0-7.36-2.98-14.02-7.81-18.85Z"/></g></svg>