<?xml version="1.0" encoding="UTF-8"?><svg id="a" xmlns="http://www.w3.org/2000/svg" viewBox="0 0 193 207.1"><defs><style>.b{fill:#f4fce3;}.c{fill:none;stroke:#069;stroke-miterlimit:10;}.c,.d{fill-rule:evenodd;}.d{fill:#99ca3c;}</style></defs><polygon class="b" points="191.6 143.45 191.6 74.75 132.1 40.45 72.7 74.75 72.7 143.45 132.1 177.75 191.6 143.45"/><path class="c" d="M106.3,74.14h15.64v73.02h-15.64V74.14h0Zm28.02,80.23H21.71V41.76c0-.9-.73-1.63-1.63-1.63s-1.63,.73-1.63,1.63v114.24c0,.9,.73,1.63,1.63,1.63h114.24c.9,0,1.63-.73,1.63-1.63s-.73-1.63-1.63-1.63h0ZM28.92,120.73h15.64v26.43h-15.64v-26.43h0Zm25.79-12.86h15.64v39.29h-15.64v-39.29h0Zm25.79-14h15.64v53.29h-15.64v-53.29Z"/><path class="d" d="M105.35,55.2c-.88-.17-1.46-1.02-1.29-1.91,.17-.88,1.02-1.46,1.91-1.29l10.59,2.02c.88,.17,1.46,1.02,1.29,1.91-.02,.11-.05,.21-.09,.31l-3.51,10.11c-.3,.85-1.22,1.3-2.07,1-.85-.3-1.3-1.22-1-2.07l2.11-6.05-38.94,22.48c-.66,.42-1.55,.32-2.09-.28l-11.37-12.65-31.15,17.98c-.78,.45-1.77,.18-2.22-.6-.45-.78-.18-1.77,.6-2.22l32.29-18.64c.68-.39,1.52-.24,2.02,.32h0l11.37,12.64,37.86-21.86-6.29-1.2Z"/></svg>