<?xml version="1.0" encoding="UTF-8"?><svg id="a" xmlns="http://www.w3.org/2000/svg" viewBox="0 0 193 207.1"><defs><style>.b{fill:#f4fce3;}.c{fill:#99ca3c;}.c,.d{fill-rule:evenodd;}.d{fill:#069;}</style></defs><polygon class="b" points="193.15 167 193.15 98.3 133.75 64 74.35 98.3 74.35 167 133.75 201.3 193.15 167"/><g><path class="d" d="M101.17,96.97c6.24,0,11.9,2.53,15.99,6.62,4.09,4.09,6.62,9.75,6.62,15.99s-2.53,11.9-6.62,15.99-9.75,6.62-15.99,6.62-11.9-2.53-15.99-6.62-6.62-9.75-6.62-15.99,2.53-11.9,6.62-15.99,9.75-6.62,15.99-6.62h0Zm34.27,46.33h6.1c1.63,0,3.19-.33,4.63-.93,1.49-.62,2.83-1.52,3.94-2.63,1.11-1.11,2.02-2.45,2.63-3.94,.6-1.43,.93-3,.93-4.63V49.43c0-1.63-.33-3.19-.93-4.63-.62-1.49-1.52-2.83-2.63-3.94-1.11-1.11-2.45-2.02-3.94-2.63-1.43-.6-3-.93-4.63-.93H16.54c-1.63,0-3.19,.33-4.63,.93-1.48,.62-2.81,1.52-3.93,2.63h0c-1.12,1.13-2.02,2.46-2.63,3.94-.6,1.43-.93,3-.93,4.63v81.74c0,1.63,.33,3.19,.93,4.63,1.23,2.97,3.61,5.34,6.57,6.57,1.43,.6,3,.93,4.63,.93H51.39l-.09,1.22c-.7,9.75-1.17,16.2-12.52,17.71-1.09,.14-1.87,.64-2.41,1.36-.55,.73-.77,1.63-.77,2.55,0,1,.41,1.92,1.07,2.58h0c.66,.67,1.57,1.08,2.58,1.08H118.81c1.19,0,2.09-.47,2.72-1.21,.64-.75,.93-1.73,.93-2.74,0-.91-.34-1.76-.91-2.41-.57-.65-1.36-1.09-2.27-1.21-5.42-.72-8.33-2.41-9.93-4.93-1.45-2.28-1.97-5.42-2.31-9.19,3.52-.72,6.81-2.08,9.75-3.95,1.69,2.02,2.76,3.3,3.73,4.47,7.58,9.12,11.29,13.59,19.83,20.66,.76,.7,1.95,.68,2.69-.06l7.76-7.77c.7-.7,.77-1.84,.12-2.62-5.61-6.78-9.58-10.53-15.5-15.54h0Zm-12-4.95c-.53,.63-1.09,1.24-1.68,1.83-.58,.58-1.19,1.14-1.83,1.68l3.57,4.29c7,8.43,10.63,12.79,18.04,19.07l5.25-5.25c-6.87-8.11-15.2-14.87-23.36-21.62h0Zm5.01-8.54h11.73V50.8H17.9v79.01h56c-1.19-3.18-1.85-6.63-1.85-10.23,0-8.04,3.26-15.32,8.53-20.59,5.27-5.27,12.55-8.53,20.59-8.53s15.32,3.26,20.59,8.53c5.27,5.27,8.53,12.55,8.53,20.59,0,3.6-.65,7.05-1.85,10.23h0Zm-45.11,7.61c.85,.85,1.76,1.64,2.72,2.36h.02v.02h.02v.02c9.98,7.45,24.02,6.5,32.92-2.39,4.56-4.56,7.39-10.87,7.39-17.84s-2.82-13.27-7.39-17.84c-4.56-4.56-10.87-7.39-17.84-7.39s-13.27,2.82-17.84,7.39c-4.56,4.56-7.39,10.87-7.39,17.84s2.65,13.1,7.39,17.84h0Zm31.07-31.07c-3.39-3.39-8.07-5.48-13.23-5.48s-9.85,2.1-13.23,5.48c-3.39,3.39-5.48,8.07-5.48,13.23s2.09,9.85,5.48,13.23c3.39,3.39,8.07,5.48,13.23,5.48s9.85-2.09,13.23-5.48c3.39-3.39,5.48-8.07,5.48-13.23s-2.09-9.85-5.48-13.23h0Zm12.24,27.36c-.28,.51-.58,1.01-.9,1.5h0c1.67,1.4,3.35,2.8,5.03,4.2h10.76c1.11,0,2.17-.22,3.14-.62,1-.42,1.91-1.03,2.68-1.8,.77-.77,1.38-1.67,1.8-2.68,.4-.96,.62-2.02,.62-3.14V49.43c0-1.11-.22-2.17-.62-3.14-.42-1-1.03-1.91-1.8-2.68s-1.67-1.38-2.67-1.8c-.96-.4-2.02-.62-3.14-.62H16.54c-1.12,0-2.18,.22-3.14,.62-1.01,.42-1.92,1.03-2.68,1.79-.76,.76-1.38,1.67-1.79,2.68-.4,.96-.62,2.02-.62,3.14v81.74c0,1.12,.22,2.18,.62,3.14,.84,2.01,2.46,3.64,4.47,4.47,.96,.4,2.02,.62,3.14,.62h63.3c-1.6-1.72-2.99-3.63-4.14-5.7H16.54c-.37,0-.72-.08-1.04-.23-.28-.13-.53-.31-.74-.52s-.38-.46-.52-.75c-.15-.33-.23-.67-.23-1.03V49.43c0-1.37,1.16-2.53,2.53-2.53h125c1.37,0,2.53,1.16,2.53,2.53v81.74c0,.37-.08,.71-.23,1.03-.1,.2-.21,.38-.34,.54-.05,.07-.11,.14-.18,.2-.14,.14-.3,.26-.48,.37-.08,.06-.17,.1-.26,.15-.32,.15-.67,.23-1.04,.23h-14.9Zm-23.45,14.93c.39,4.23,1.03,7.82,2.88,10.75,2.08,3.28,5.52,5.52,11.54,6.52H40.47c13.34-2.19,13.9-9.79,14.71-21.11l.11-1.49h28.98c5.56,3.97,12.22,5.79,18.92,5.33Z"/><path class="c" d="M32.29,94.66h12.31c1.08,0,1.95,.87,1.95,1.95v20.8c0,1.08-.87,1.95-1.95,1.95h-12.31c-1.08,0-1.95-.87-1.95-1.95v-20.8c0-1.08,.87-1.95,1.95-1.95h0Zm10.36,3.9h-8.41v16.9h8.41v-16.9h0Zm85.09-.88c0,1.08-.87,1.95-1.95,1.95s-1.95-.87-1.95-1.95v-20.25h-8.41v11.58c0,1.08-.87,1.95-1.95,1.95s-1.95-.87-1.95-1.95v-13.53c0-1.08,.87-1.95,1.95-1.95h12.31c1.08,0,1.95,.87,1.95,1.95v22.2h0Zm-32.61-10.07c0,1.08-.87,1.95-1.95,1.95s-1.95-.87-1.95-1.95v-27.66c0-1.08,.87-1.95,1.95-1.95h12.31c1.08,0,1.95,.87,1.95,1.95v26.96c0,1.08-.87,1.95-1.95,1.95s-1.95-.87-1.95-1.95v-25.02h-8.41v25.71h0Zm-32.18-10.18h-8.41v38.04h8.41v-38.04h0Zm-10.36-3.9h12.31c1.08,0,1.95,.87,1.95,1.95v41.93c0,1.08-.87,1.95-1.95,1.95h-12.31c-1.08,0-1.95-.87-1.95-1.95v-41.93c0-1.08,.87-1.95,1.95-1.95h0Zm34.56,17.23c0,1.08-.87,1.95-1.95,1.95s-1.95-.87-1.95-1.95v-2.31h-8.41v14.22c0,1.08-.87,1.95-1.95,1.95s-1.95-.87-1.95-1.95v-16.17c0-1.08,.87-1.95,1.95-1.95h12.31c1.08,0,1.95,.87,1.95,1.95v4.26Z"/></g></svg>