<?xml version="1.0" encoding="UTF-8"?><svg id="a" xmlns="http://www.w3.org/2000/svg" viewBox="0 0 193 207.1"><defs><style>.b{fill:#eef3f8;}.c{fill:#99ca3c;}.c,.d{fill-rule:evenodd;}.d{fill:#069;}</style></defs><polygon class="b" points="192.07 167 192.07 98.3 132.57 64 73.17 98.3 73.17 167 132.57 201.3 192.07 167"/><g><path class="c" d="M80.79,115.47c-.78,.67-1.96,.58-2.63-.2-.67-.78-.58-1.96,.2-2.63,1.1-.94,2.19-1.92,3.28-2.93,1.02-.95,2.08-1.97,3.18-3.06,3.41-3.41,6.52-6.93,9.34-10.53,2.9-3.7,5.52-7.52,7.86-11.44,2.28-3.8,4.3-7.7,6.08-11.67,1.53-3.43,2.88-6.92,4.04-10.45l-5.74-1.7c-.99-.29-1.55-1.33-1.26-2.31,.06-.21,.16-.4,.28-.57l2.21-3.04c.12-.17,.27-.31,.43-.43l17.89-13.52c.82-.62,1.99-.46,2.61,.36,.14,.18,.23,.38,.3,.58l9.13,25.18c.35,.97-.15,2.04-1.12,2.39-.39,.14-.79,.14-1.16,.04l-7.11-2.1c-1.37,4.21-2.97,8.37-4.8,12.48-2.06,4.61-4.42,9.15-7.06,13.56-2.73,4.56-5.76,8.99-9.1,13.26-3.29,4.22-6.85,8.25-10.66,12.07-2.53,2.53-5.17,4.96-7.9,7.28-2.72,2.31-5.53,4.51-8.42,6.58-.83,.6-2,.41-2.6-.42-.6-.83-.41-2,.42-2.6,2.78-1.99,5.51-4.13,8.19-6.4,2.6-2.21,5.16-4.57,7.67-7.08,3.76-3.76,7.22-7.67,10.37-11.72,3.23-4.14,6.18-8.45,8.84-12.88,2.57-4.29,4.86-8.69,6.86-13.17,2.02-4.52,3.75-9.12,5.18-13.78h0c.29-1,1.33-1.57,2.31-1.27l5.33,1.58-7.05-19.43-15.7,11.86-.5,.68,5.05,1.5c.98,.3,1.54,1.34,1.23,2.33-1.32,4.28-2.92,8.51-4.77,12.66-1.84,4.1-3.93,8.13-6.28,12.06-2.42,4.04-5.13,7.99-8.13,11.82-2.96,3.78-6.18,7.42-9.64,10.88-1.03,1.03-2.12,2.08-3.28,3.15-1.11,1.03-2.24,2.04-3.39,3.03h0Zm-46.61,34.26c1-.23,2,.41,2.23,1.41,.23,1-.41,2-1.41,2.23-4.43,1.01-8.88,1.77-13.32,2.28-4.44,.51-8.92,.77-13.41,.77-1.03,0-1.86-.83-1.86-1.86h0v-13.42c0-1.03,.84-1.87,1.87-1.87h.16c4.25,0,8.53-.29,12.8-.85,4.3-.56,8.61-1.39,12.88-2.5,.99-.26,2.01,.34,2.27,1.34,.26,1-.34,2.01-1.34,2.27-4.42,1.14-8.88,2.01-13.35,2.59-3.85,.5-7.71,.79-11.56,.86v9.7c3.68-.07,7.39-.31,11.12-.74,4.34-.5,8.65-1.23,12.92-2.21Z"/><path class="d" d="M72.11,102.95v61.65c0,1.03-.84,1.87-1.87,1.87h-25.76c-1.03,0-1.87-.84-1.87-1.87v-61.65l-24.48-33.71c-.52-.72-.88-1.5-1.08-2.32-.19-.81-.22-1.67-.07-2.55v-.07c.16-.85,.45-1.63,.88-2.32,.44-.72,1.03-1.34,1.75-1.86,1.49-1.07,3.23-1.56,4.88-1.39,1.72,.18,3.34,1.04,4.5,2.67,6.52,8.84,12.87,17.91,19.29,26.84h18.11l19.32-26.84c1.05-1.45,2.6-2.34,4.24-2.61,1.65-.27,3.4,.09,4.86,1.14h0c.76,.55,1.38,1.12,1.87,1.82,.52,.74,.86,1.59,1.03,2.64,.14,.88,.12,1.73-.07,2.54-.2,.83-.55,1.6-1.08,2.32l-24.48,33.71h0Zm-16.62,59.78v-30.15c0-1.03,.84-1.87,1.87-1.87s1.87,.84,1.87,1.87v30.15h9.14v-60.39c0-.38,.12-.76,.36-1.09l24.83-34.2c.23-.32,.39-.65,.46-.98,.08-.35,.09-.73,.03-1.11-.07-.46-.21-.81-.41-1.09-.2-.29-.5-.56-.88-.85-.08-.05-.15-.1-.22-.16-.6-.4-1.32-.53-1.99-.42h0c-.67,.11-1.3,.46-1.74,1.02-.05,.08-.11,.16-.17,.23l-19.68,27.35c-.33,.55-.92,.92-1.61,.92h-20.01c-.58,0-1.15-.28-1.51-.78l-19.85-27.62c-.5-.69-1.16-1.06-1.86-1.13-.76-.08-1.58,.17-2.32,.7h0c-.32,.23-.58,.5-.76,.8-.18,.29-.3,.61-.36,.98v.05c-.07,.39-.06,.76,.02,1.11,.08,.33,.23,.66,.46,.98l24.77,34.12c.26,.32,.42,.73,.42,1.18v60.39h9.14Zm1.87-101.64c-2.51,0-4.79,1.02-6.44,2.67-1.65,1.65-2.67,3.92-2.67,6.44s1.02,4.79,2.67,6.44c1.65,1.65,3.92,2.67,6.44,2.67s4.79-1.02,6.44-2.66h0c1.65-1.65,2.67-3.93,2.67-6.44s-1.02-4.79-2.67-6.44l-.08-.09c-1.64-1.59-3.88-2.57-6.35-2.57h0Zm-9.08,.02c-2.32,2.32-3.76,5.53-3.76,9.08s1.44,6.75,3.76,9.08c2.32,2.32,5.53,3.76,9.08,3.76s6.75-1.44,9.07-3.76h0c2.32-2.32,3.76-5.53,3.76-9.07s-1.44-6.76-3.76-9.08l-.11-.1c-2.32-2.26-5.48-3.66-8.97-3.66s-6.76,1.44-9.08,3.76Z"/></g></svg>