<?xml version="1.0" encoding="UTF-8"?><svg id="a" xmlns="http://www.w3.org/2000/svg" viewBox="0 0 193 207.1"><defs><style>.b{fill:#f4fce3;}.c{fill:#99ca3c;}.c,.d{fill-rule:evenodd;}.d{fill:#069;}</style></defs><polygon class="b" points="192.87 167 192.87 98.3 133.47 64 74.07 98.3 74.07 167 133.47 201.3 192.87 167"/><g><path class="d" d="M51.95,119.33h6.39v-34.98c0-1.75-.71-3.33-1.86-4.48h0c-1.15-1.15-2.73-1.86-4.48-1.86H23.12c-1.75,0-3.33,.71-4.48,1.86h0c-1.15,1.15-1.86,2.74-1.86,4.48v34.98h6.39v-28.67c0-.91,.74-1.65,1.65-1.65s1.65,.74,1.65,1.65v71.02h9.43v-30.01c0-.91,.74-1.65,1.65-1.65s1.65,.74,1.65,1.65v30.01h9.43V90.66c0-.91,.74-1.65,1.65-1.65s1.65,.74,1.65,1.65v28.67h0Zm-14.39-68.38c-2.54,0-4.84,1.03-6.5,2.69s-2.69,3.96-2.69,6.5,1.03,4.84,2.69,6.5c1.66,1.66,3.96,2.69,6.5,2.69s4.84-1.03,6.5-2.69c1.66-1.66,2.69-3.96,2.69-6.5s-1.03-4.84-2.69-6.5-3.96-2.69-6.5-2.69h0Zm-8.84,.36c2.26-2.26,5.39-3.66,8.84-3.66s6.58,1.4,8.84,3.66,3.66,5.39,3.66,8.84-1.4,6.58-3.66,8.84c-2.26,2.26-5.39,3.66-8.84,3.66s-6.58-1.4-8.84-3.66c-2.26-2.26-3.66-5.39-3.66-8.84s1.4-6.58,3.66-8.84h0Zm-5.55,71.33H15.13c-.91,0-1.65-.74-1.65-1.65v-36.63c0-2.65,1.09-5.07,2.83-6.82h0c1.75-1.75,4.16-2.83,6.81-2.83h28.88c2.64,0,5.05,1.08,6.81,2.83h.01c1.75,1.76,2.83,4.17,2.83,6.82v36.63c0,.91-.74,1.65-1.65,1.65h-8.05v40.7c0,.91-.74,1.65-1.65,1.65H24.83c-.91,0-1.65-.74-1.65-1.65v-40.7Z"/><path class="d" d="M116.73,53.67h17.14c1.45,0,2.77,.59,3.73,1.55h0c.96,.95,1.55,2.27,1.55,3.73v17.14c0,1.46-.59,2.78-1.55,3.73l-.11,.1c-.95,.9-2.23,1.45-3.62,1.45h-17.14c-1.45,0-2.77-.59-3.73-1.55h0c-.96-.95-1.55-2.27-1.55-3.73v-17.14c0-1.46,.59-2.78,1.55-3.73l.11-.1c.95-.9,2.23-1.45,3.62-1.45h0Zm17.14,3.31h-17.14c-.52,0-.98,.2-1.33,.51l-.06,.07c-.36,.36-.58,.85-.58,1.4v17.14c0,.54,.22,1.04,.58,1.4h0c.35,.36,.85,.58,1.4,.58h17.14c.51,0,.98-.19,1.33-.51l.06-.07c.36-.36,.58-.85,.58-1.4v-17.14c0-.54-.22-1.04-.58-1.4h0c-.35-.36-.85-.58-1.4-.58Z"/><path class="c" d="M120.94,67.49c-.61-.68-.55-1.72,.12-2.33,.68-.61,1.72-.55,2.33,.12l5.36,5.95,13.98-13.98c.64-.64,1.69-.64,2.34,0,.65,.64,.65,1.69,0,2.34l-15.21,15.21-.06,.06c-.68,.61-1.72,.55-2.33-.12l-6.52-7.24Z"/><path class="d" d="M103.63,143.45c.91,0,1.65,.74,1.65,1.65s-.74,1.65-1.65,1.65h-18.87c-.91,0-1.65-.74-1.65-1.65v-37.14h-14.94c-.91,0-1.65-.74-1.65-1.65s.74-1.65,1.65-1.65h14.94v-37.14c0-.91,.74-1.65,1.65-1.65h18.87c.91,0,1.65,.74,1.65,1.65s-.74,1.65-1.65,1.65h-17.22v35.49h17.22c.91,0,1.65,.74,1.65,1.65s-.74,1.65-1.65,1.65h-17.22v35.49h17.22Z"/><path class="d" d="M116.73,92.46h17.14c1.45,0,2.77,.59,3.73,1.55h.01c.95,.97,1.55,2.29,1.55,3.73v17.14c0,1.45-.59,2.77-1.55,3.73h-.01c-.96,.96-2.28,1.56-3.72,1.56h-17.14c-1.45,0-2.77-.59-3.73-1.55h-.01c-.95-.97-1.55-2.29-1.55-3.73v-17.14c0-1.45,.59-2.77,1.55-3.73h.01c.96-.96,2.28-1.56,3.72-1.56h0Zm17.14,3.31h-17.14c-.55,0-1.04,.22-1.4,.57h0c-.35,.36-.57,.86-.57,1.4v17.14c0,.55,.22,1.04,.57,1.4h0c.35,.36,.85,.58,1.4,.58h17.14c.55,0,1.04-.22,1.4-.57h0c.35-.36,.57-.86,.57-1.4v-17.14c0-.55-.22-1.04-.57-1.4h0c-.35-.36-.85-.58-1.4-.58Z"/><path class="c" d="M120.94,106.28c-.61-.68-.55-1.72,.12-2.33,.68-.61,1.72-.55,2.33,.12l5.36,5.95,13.98-13.98c.64-.64,1.69-.64,2.34,0,.65,.64,.65,1.69,0,2.34l-15.21,15.21-.06,.06c-.68,.61-1.72,.55-2.33-.12l-6.52-7.24Z"/><path class="d" d="M116.73,131.25h17.14c1.45,0,2.77,.59,3.73,1.55h0c.96,.95,1.55,2.27,1.55,3.73v17.14c0,1.46-.59,2.78-1.55,3.73l-.11,.1c-.95,.9-2.23,1.45-3.62,1.45h-17.14c-1.45,0-2.77-.59-3.73-1.55h0c-.96-.95-1.55-2.27-1.55-3.73v-17.14c0-1.46,.59-2.78,1.55-3.73l.11-.1c.95-.9,2.23-1.45,3.62-1.45h0Zm17.14,3.31h-17.14c-.52,0-.98,.2-1.33,.51l-.06,.07c-.36,.36-.58,.85-.58,1.4v17.14c0,.54,.22,1.04,.58,1.4h0c.35,.36,.85,.58,1.4,.58h17.14c.51,0,.98-.19,1.33-.51l.06-.07c.36-.36,.58-.85,.58-1.4v-17.14c0-.54-.22-1.04-.58-1.4h0c-.35-.36-.85-.58-1.4-.58Z"/><path class="c" d="M120.94,145.08c-.61-.68-.55-1.72,.12-2.33,.68-.61,1.72-.55,2.33,.12l5.36,5.95,13.98-13.98c.64-.64,1.69-.64,2.34,0,.65,.64,.65,1.69,0,2.34l-15.21,15.21-.06,.06c-.68,.61-1.72,.55-2.33-.12l-6.52-7.24Z"/></g></svg>